<?xml version="1.0" encoding="utf-8"?>
<!-- Generator: Adobe Illustrator 22.0.0, SVG Export Plug-In . SVG Version: 6.00 Build 0)  -->
<svg version="1.1" id="designs" xmlns="http://www.w3.org/2000/svg" xmlns:xlink="http://www.w3.org/1999/xlink" x="0px" y="0px"
	 viewBox="0 0 32 32" style="enable-background:new 0 0 32 32;" xml:space="preserve">
<path d="M19.8,30.5c-0.4,0.1-0.8-0.2-0.9-0.6c-0.1-0.4-0.2-0.8-0.3-1.2l-0.1-0.3c-0.1-0.5-0.2-1-0.3-1.5c-0.1-0.4,0.2-0.8,0.6-0.9
	c0.2,0,0.4,0,0.6,0.1c0.2,0.1,0.3,0.3,0.3,0.4c0.2,1.1,0.3,2,0.6,3c0.1,0.2,0,0.4-0.1,0.5C20.2,30.3,20,30.5,19.8,30.5z M8.6,28.9
	c-0.3,0.1-0.6,0-0.7-0.2c-0.1-0.1-0.2-0.4-0.2-0.6c0-0.2,0.1-0.3,0.2-0.5l0,0c0.3-0.3,0.5-0.7,0.7-1.1c0.3-0.4,0.5-0.9,0.8-1.3
	c0.1-0.2,0.3-0.3,0.5-0.3s0.4,0,0.6,0.1c0.4,0.2,0.5,0.7,0.2,1.1c-0.2,0.3-0.4,0.6-0.6,0.9l-0.4,0.6c-0.1,0.1-0.2,0.3-0.2,0.4
	c-0.1,0.2-0.3,0.4-0.4,0.6C8.9,28.7,8.8,28.8,8.6,28.9z M28.7,24.2c-0.2,0-0.4,0-0.6-0.1c-0.3-0.1-0.5-0.3-0.8-0.5L27,23.4
	c-0.4-0.3-0.9-0.5-1.3-0.8c-0.3-0.2-0.5-0.7-0.2-1c0.1-0.2,0.3-0.3,0.5-0.3c0.2,0,0.4,0,0.6,0.1l1.4,0.9c0.3,0.2,0.5,0.4,0.8,0.5
	c0.3,0.1,0.4,0.3,0.5,0.5c0.1,0.2,0.1,0.5-0.1,0.6C29.1,24,28.9,24.1,28.7,24.2z M18.3,24.3c-0.3,0.1-0.5,0.1-0.8,0.1
	c-0.3,0-0.5,0-0.7,0c-0.4,0-0.9-0.1-1.4-0.1C15,24.2,14.5,24.1,14,24c-0.5-0.1-0.9-0.3-1.4-0.6c-0.5-0.2-0.9-0.4-1.2-0.7l-0.2-0.1
	c-0.3-0.3-0.7-0.5-1-0.8c-0.4-0.4-0.7-0.7-0.9-1.1c-0.3-0.5-0.5-1-0.6-1.4c-0.3-0.9-0.4-1.8-0.5-2.6c-0.1-0.5-0.1-1-0.1-1.5
	c0-0.4,0.1-0.9,0.2-1.5c0.1-0.3,0.1-0.5,0.2-0.7c0.1-0.2,0.2-0.4,0.3-0.7C9,12,9.2,11.6,9.4,11.2c0.3-0.5,0.7-0.9,1-1.2
	c0.4-0.4,0.8-0.7,1.2-1.1c0.8-0.5,1.6-1,2.3-1.4c0.1,0,0.1-0.1,0.2-0.1c0.2,0,0.5,0,0.6,0.1c0.5,0,0.8,0,1.2-0.1
	c0.7,0,1.4,0,2.2,0.2c0.4,0.1,0.8,0.2,1.1,0.3c0.5,0.2,0.9,0.4,1.3,0.6C20.8,8.8,21,9,21.2,9.1c0.2,0.2,0.4,0.3,0.6,0.5l0.3,0.3l0,0
	c0.3,0.3,0.6,0.5,0.9,0.8c0.3,0.3,0.5,0.6,0.8,0.9c0.4,0.5,0.7,0.9,0.9,1.3c0.2,0.5,0.4,0.9,0.5,1.2l0.1,0.3
	c0.1,0.3,0.1,0.6,0.2,0.9c0.1,0.5,0.1,1,0.1,1.4c0,0.4-0.1,0.8-0.2,1.1L25.2,18c-0.1,0.5-0.3,1-0.5,1.4c-0.4,0.7-0.8,1.4-1.3,2
	c-0.3,0.4-0.7,0.7-1,0.9l-0.7,0.5c-0.2,0.1-0.4,0.3-0.6,0.4C20.4,23.6,19.5,24,18.3,24.3L18.3,24.3L18.3,24.3z M13.8,9.5
	c-0.4,0.3-0.9,0.5-1.3,0.8c-0.4,0.3-0.8,0.7-1.2,1.2c-0.2,0.3-0.4,0.5-0.6,0.8c-0.2,0.2-0.3,0.5-0.4,0.7c-0.2,0.4-0.3,0.8-0.4,1.4
	c-0.1,0.4-0.1,0.9-0.1,1.3c0.1,0.5,0.1,0.9,0.2,1.4l0.1,0.4c0.1,0.5,0.2,1,0.4,1.6c0.1,0.3,0.3,0.6,0.4,0.9c0.3,0.3,0.6,0.7,0.9,0.9
	c0.3,0.2,0.5,0.4,0.7,0.5c0.3,0.2,0.7,0.4,0.9,0.5c0.3,0.1,0.6,0.3,0.9,0.4c0.3,0.1,0.6,0.2,0.9,0.2c0.6,0.1,1.3,0.2,2,0.2
	c0.2,0,0.5-0.1,0.7-0.1c0.4-0.1,0.8-0.2,1.1-0.3c0.3-0.1,0.5-0.2,0.8-0.4c0.3-0.1,0.5-0.3,0.7-0.4c0.4-0.3,1-0.7,1.4-1.2
	c0.2-0.2,0.3-0.4,0.5-0.7c0.2-0.2,0.3-0.5,0.4-0.8c0.1-0.3,0.3-0.7,0.4-1c0.1-0.3,0.2-0.6,0.2-0.9c0-0.3,0-0.6,0-0.9
	c0-0.3-0.1-0.5-0.1-0.7l0-0.3c0-0.3-0.1-0.5-0.2-0.8c-0.1-0.3-0.3-0.6-0.5-0.9c-0.3-0.3-0.5-0.6-0.8-0.9c-0.3-0.3-0.5-0.6-0.8-0.8
	l-0.8-0.7c-0.5-0.4-1-0.7-1.6-1c-0.3-0.1-0.6-0.2-1-0.3c-0.4-0.1-0.7-0.1-1.1-0.1l-0.2,0c-0.5,0-1,0-1.5,0
	C14.5,9.3,14.2,9.4,13.8,9.5L13.8,9.5L13.8,9.5z M5.3,19.6c-0.8,0.1-1.7,0.3-2.5,0.5l-0.4,0.1C2,20.2,1.6,20,1.5,19.6
	c-0.1-0.4,0.2-0.8,0.5-0.9c0.3-0.1,0.5-0.1,0.8-0.1c0.4-0.1,0.9-0.2,1.3-0.3c0.3-0.1,0.5-0.1,0.8-0.2c0,0,0,0,0,0
	c0.4-0.1,0.8,0.2,0.9,0.6C5.9,19,5.7,19.5,5.3,19.6L5.3,19.6z M27.4,14.5c-0.2,0-0.4,0-0.6-0.1c-0.2-0.1-0.3-0.3-0.4-0.5
	c-0.1-0.4,0.2-0.9,0.6-1c0.3-0.1,0.7-0.1,1-0.2c0.4-0.1,0.7-0.1,1.1-0.2c0.2,0,0.5-0.1,0.5-0.1c0.3-0.1,0.5,0,0.7,0.2
	c0.2,0.2,0.3,0.4,0.3,0.7c0,0.2-0.1,0.4-0.3,0.6c-0.1,0.1-0.2,0.2-0.4,0.2c0,0-0.1,0-0.1,0l0,0c-0.1,0-0.3,0-0.4,0.1
	c-0.1,0-0.3,0.1-0.4,0.1l-0.6,0.2C28.1,14.3,27.8,14.4,27.4,14.5L27.4,14.5z M5.3,11.4c-0.2,0-0.4,0-0.6-0.1
	c-0.4-0.2-0.9-0.5-1.3-0.7C2.9,10.3,2.4,10,2,9.7C1.8,9.7,1.7,9.5,1.6,9.3c0-0.2,0-0.4,0.1-0.6C1.8,8.5,2,8.4,2.2,8.4
	c0.2,0,0.4,0,0.6,0.1l0.6,0.3c0.6,0.4,1.2,0.7,1.8,1c0.1,0,0.1,0,0.2,0.1c0.2,0.1,0.4,0.3,0.5,0.5c0.1,0.2,0,0.4-0.1,0.6
	C5.6,11.2,5.4,11.3,5.3,11.4z M22.5,7.3c-0.2,0-0.4,0-0.6-0.1c-0.4-0.2-0.5-0.7-0.2-1.1c0.2-0.3,0.3-0.6,0.5-0.9
	c0.1-0.2,0.2-0.3,0.3-0.5c0.3-0.5,0.6-1,0.9-1.5L23.5,3c0.1-0.2,0.3-0.3,0.5-0.3c0.2,0,0.4,0,0.6,0.1c0.4,0.2,0.5,0.7,0.2,1.1
	c-0.4,0.6-0.7,1.2-1.1,1.8c-0.2,0.3-0.3,0.5-0.5,0.8L23,6.9C22.9,7.1,22.7,7.2,22.5,7.3z M13.9,5.6C13.5,5.7,13,5.4,12.9,5
	c-0.2-0.8-0.4-1.7-0.6-2.8c-0.1-0.4,0.2-0.8,0.6-0.9c0.2,0,0.4,0,0.6,0.1c0.2,0.1,0.3,0.3,0.3,0.5l0.1,0.6C14,2.8,14,3.1,14.1,3.4
	c0.1,0.4,0.2,0.8,0.3,1.3c0.1,0.2,0,0.3-0.1,0.5C14.3,5.4,14.1,5.6,13.9,5.6z" fill="white"/>
</svg>
