<svg version="1.1" id="designs" xmlns="http://www.w3.org/2000/svg" xmlns:xlink="http://www.w3.org/1999/xlink" x="0px" y="0px"
	 width="32px" height="32px" viewBox="0 0 32 32" style="enable-background:new 0 0 32 32;" xml:space="preserve">
<style type="text/css">
	.sketchy_een{fill:#EFEFEFFF;}
</style>
<path class="sketchy_een" d="M16.51,31c-0.426,0-0.765-0.341-0.788-0.793c-0.02-0.407-0.002-0.818,0.016-1.226l0.011-0.277
	c0.02-0.503,0.039-1.007,0.066-1.511c0.026-0.449,0.349-0.776,0.77-0.776c0.21,0,0.428,0.099,0.581,0.264
	c0.136,0.145,0.203,0.322,0.191,0.499c-0.076,1.073-0.132,2.042-0.058,3.039c0.013,0.18-0.056,0.361-0.194,0.509
	C16.947,30.898,16.725,31,16.51,31z M5.901,26.888c-0.28,0-0.538-0.144-0.673-0.376c-0.103-0.176-0.13-0.389-0.076-0.587
	c0.05-0.183,0.154-0.297,0.295-0.412l0,0c0.325-0.262,0.609-0.549,0.933-0.899c0.351-0.38,0.704-0.756,1.059-1.133
	c0.135-0.143,0.324-0.222,0.534-0.222c0.21,0,0.413,0.083,0.556,0.225c0.296,0.296,0.296,0.786-0.001,1.092
	c-0.248,0.258-0.501,0.508-0.755,0.759l-0.534,0.535c-0.105,0.108-0.21,0.215-0.32,0.317c-0.191,0.179-0.349,0.326-0.495,0.482
	C6.29,26.81,6.104,26.888,5.901,26.888z M26.582,26.792c-0.188,0-0.346-0.067-0.529-0.224c-0.224-0.192-0.435-0.404-0.643-0.614
	l-0.307-0.305c-0.369-0.364-0.738-0.727-1.101-1.096c-0.291-0.293-0.291-0.767-0.001-1.058c0.137-0.138,0.331-0.216,0.535-0.216
	c0.203,0,0.387,0.077,0.52,0.215l1.15,1.208c0.223,0.233,0.448,0.467,0.693,0.675c0.251,0.149,0.38,0.349,0.41,0.581
	c0.029,0.231-0.045,0.455-0.204,0.615C26.966,26.713,26.776,26.792,26.582,26.792z M16.458,24.584c-0.275,0-0.543-0.037-0.815-0.076
	c-0.269-0.037-0.493-0.078-0.714-0.132c-0.415-0.103-0.846-0.246-1.315-0.436c-0.427-0.172-0.869-0.351-1.288-0.581
	c-0.44-0.239-0.836-0.548-1.219-0.846c-0.419-0.324-0.736-0.618-0.997-0.925L9.966,21.42c-0.275-0.321-0.56-0.654-0.776-1.012
	c-0.264-0.437-0.513-0.868-0.657-1.326c-0.182-0.576-0.282-1.073-0.305-1.519c-0.049-0.949,0.01-1.88,0.074-2.666
	c0.044-0.539,0.121-1.024,0.236-1.483c0.106-0.42,0.279-0.858,0.547-1.38c0.12-0.236,0.218-0.43,0.326-0.617
	c0.122-0.211,0.261-0.401,0.413-0.595c0.229-0.29,0.506-0.625,0.824-0.914c0.409-0.37,0.871-0.697,1.228-0.941
	c0.432-0.296,0.901-0.544,1.433-0.759c0.885-0.359,1.798-0.657,2.573-0.901c0.067-0.022,0.138-0.032,0.208-0.032
	c0.222,0,0.447,0.105,0.602,0.281c0.449,0.078,0.83,0.144,1.213,0.215c0.676,0.129,1.352,0.348,2.064,0.669
	c0.362,0.163,0.713,0.327,1.023,0.552c0.418,0.301,0.81,0.583,1.135,0.923c0.168,0.174,0.336,0.352,0.489,0.544
	c0.162,0.203,0.314,0.414,0.465,0.624l0.243,0.334l-0.003,0.001c0.243,0.315,0.478,0.633,0.688,0.973
	c0.209,0.336,0.398,0.68,0.589,1.026c0.32,0.587,0.513,1.051,0.629,1.487c0.134,0.514,0.193,0.929,0.187,1.307l-0.006,0.302
	c-0.004,0.298-0.008,0.598-0.033,0.895c-0.043,0.504-0.13,0.966-0.264,1.411c-0.111,0.369-0.305,0.716-0.493,1.051l-0.094,0.169
	c-0.257,0.469-0.494,0.889-0.802,1.281c-0.514,0.651-1.096,1.203-1.732,1.641c-0.395,0.272-0.781,0.492-1.146,0.651l-0.785,0.339
	c-0.203,0.089-0.41,0.182-0.62,0.24c-0.859,0.24-1.817,0.369-2.927,0.394H16.458z M15.329,9.148C14.85,9.3,14.376,9.46,13.908,9.65
	c-0.469,0.212-0.927,0.489-1.445,0.874c-0.271,0.215-0.53,0.435-0.772,0.679c-0.2,0.2-0.384,0.411-0.559,0.632
	c-0.247,0.338-0.474,0.738-0.72,1.263c-0.156,0.412-0.275,0.838-0.357,1.272c-0.048,0.461-0.058,0.922-0.068,1.379L9.98,16.112
	c-0.013,0.525-0.027,1.069,0.019,1.602c0.049,0.274,0.119,0.622,0.236,0.958c0.185,0.399,0.407,0.773,0.662,1.117
	c0.2,0.249,0.384,0.48,0.581,0.696c0.261,0.289,0.552,0.531,0.778,0.709c0.255,0.197,0.512,0.389,0.79,0.551
	c0.273,0.16,0.558,0.299,0.848,0.426c0.567,0.231,1.24,0.483,1.953,0.603c0.237,0.024,0.468,0.033,0.698,0.033
	c0.392,0,0.784-0.029,1.172-0.071c0.296-0.047,0.584-0.101,0.87-0.167c0.278-0.068,0.542-0.161,0.806-0.266
	c0.479-0.208,1.097-0.497,1.66-0.894c0.22-0.176,0.434-0.352,0.631-0.546c0.204-0.201,0.393-0.418,0.573-0.64
	c0.216-0.295,0.395-0.608,0.572-0.924c0.158-0.281,0.306-0.546,0.436-0.819c0.102-0.275,0.18-0.568,0.233-0.882
	c0.027-0.253,0.037-0.501,0.048-0.75l0.013-0.272c0.016-0.282,0.011-0.553-0.016-0.832c-0.055-0.299-0.14-0.602-0.269-0.961
	c-0.174-0.379-0.377-0.741-0.579-1.095c-0.195-0.33-0.403-0.658-0.633-0.965l-0.662-0.885c-0.395-0.495-0.848-0.955-1.349-1.365
	c-0.261-0.186-0.552-0.344-0.948-0.52c-0.346-0.137-0.697-0.252-1.049-0.367L17.85,9.518c-0.476-0.153-0.982-0.235-1.472-0.315
	c-0.366-0.043-0.665-0.058-0.968-0.058l-0.022-0.003L15.329,9.148z M4.744,17.113c-0.829-0.073-1.674-0.087-2.491-0.102
	l-0.454-0.008c-0.414-0.008-0.751-0.344-0.751-0.748c0-0.399,0.337-0.75,0.722-0.75c0.276,0.01,0.529,0.024,0.783,0.036
	c0.452,0.024,0.904,0.046,1.357,0.046c0.278,0,0.556-0.009,0.834-0.031c0.001,0,0.002,0,0.003,0c0.452,0,0.767,0.419,0.767,0.779
	c0,0.361-0.315,0.781-0.72,0.781L4.744,17.113z M27.474,17.064c-0.222,0-0.435-0.09-0.598-0.253
	c-0.162-0.163-0.252-0.376-0.252-0.599c0-0.461,0.389-0.851,0.849-0.851c0.356,0.001,0.71,0.011,1.063,0.02
	c0.372,0.011,0.744,0.021,1.116,0.021c0.159,0,0.479-0.007,0.479-0.007c0.262,0,0.489,0.117,0.644,0.321
	c0.16,0.211,0.216,0.483,0.148,0.726c-0.057,0.205-0.196,0.386-0.379,0.494c-0.122,0.072-0.244,0.103-0.395,0.103
	c-0.04,0-0.081-0.002-0.123-0.006v0.002c-0.131-0.012-0.262-0.017-0.396-0.017c-0.152,0-0.306,0.006-0.458,0.012l-0.646,0.017
	c-0.349,0.008-0.699,0.015-1.048,0.017H27.474z M6.547,9.088c-0.201,0-0.395-0.078-0.545-0.219C5.645,8.534,5.279,8.21,4.914,7.886
	C4.51,7.527,4.106,7.168,3.713,6.796C3.574,6.665,3.496,6.48,3.493,6.275C3.49,6.063,3.571,5.858,3.715,5.714
	c0.142-0.142,0.333-0.22,0.537-0.22c0.206,0,0.401,0.079,0.548,0.221L5.27,6.179c0.48,0.476,0.976,0.968,1.502,1.409
	c0.05,0.037,0.096,0.07,0.143,0.098c0.204,0.132,0.342,0.353,0.367,0.59C7.306,8.499,7.23,8.71,7.07,8.872
	C6.93,9.011,6.745,9.088,6.547,9.088z M24.25,8.936c-0.21,0-0.406-0.08-0.551-0.223c-0.297-0.298-0.295-0.771,0.004-1.102
	c0.223-0.248,0.462-0.482,0.701-0.717c0.137-0.135,0.274-0.269,0.408-0.406c0.397-0.409,0.779-0.83,1.161-1.252l0.264-0.291
	c0.134-0.147,0.328-0.229,0.547-0.229c0.221,0,0.434,0.085,0.582,0.233c0.306,0.306,0.305,0.805-0.003,1.135
	c-0.485,0.521-0.981,1.031-1.488,1.529c-0.225,0.219-0.441,0.444-0.659,0.669l-0.419,0.431C24.655,8.856,24.46,8.936,24.25,8.936z
	 M16.212,5.388c-0.414,0-0.756-0.343-0.761-0.765c-0.013-0.855,0.003-1.788,0.05-2.852C15.517,1.331,15.846,1,16.264,1
	c0.204,0,0.416,0.095,0.567,0.254c0.138,0.145,0.208,0.325,0.2,0.508l-0.037,0.61c-0.021,0.318-0.041,0.636-0.053,0.954
	c-0.016,0.418-0.004,0.845,0.036,1.308c0.014,0.17-0.05,0.343-0.182,0.486C16.642,5.284,16.419,5.388,16.212,5.388z"/>
</svg>