<svg id="visual" viewBox="0 0 900 450" width="900" height="450" xmlns="http://www.w3.org/2000/svg" xmlns:xlink="http://www.w3.org/1999/xlink" version="1.1"><path d="M0 320L10 319C20 318 40 316 60 314.5C80 313 100 312 120 309.8C140 307.7 160 304.3 180 312C200 319.7 220 338.3 240 350.3C260 362.3 280 367.7 300 369.8C320 372 340 371 360 357.5C380 344 400 318 420 309.8C440 301.7 460 311.3 480 320.8C500 330.3 520 339.7 540 340.2C560 340.7 580 332.3 600 336.7C620 341 640 358 660 357C680 356 700 337 720 325.7C740 314.3 760 310.7 780 320.5C800 330.3 820 353.7 840 352.7C860 351.7 880 326.3 890 313.7L900 301L900 451L890 451C880 451 860 451 840 451C820 451 800 451 780 451C760 451 740 451 720 451C700 451 680 451 660 451C640 451 620 451 600 451C580 451 560 451 540 451C520 451 500 451 480 451C460 451 440 451 420 451C400 451 380 451 360 451C340 451 320 451 300 451C280 451 260 451 240 451C220 451 200 451 180 451C160 451 140 451 120 451C100 451 80 451 60 451C40 451 20 451 10 451L0 451Z" fill="#989898"></path><path d="M0 353L10 357.3C20 361.7 40 370.3 60 369.8C80 369.3 100 359.7 120 353.5C140 347.3 160 344.7 180 351.7C200 358.7 220 375.3 240 378.3C260 381.3 280 370.7 300 361.2C320 351.7 340 343.3 360 344C380 344.7 400 354.3 420 358.5C440 362.7 460 361.3 480 356.7C500 352 520 344 540 341.3C560 338.7 580 341.3 600 347.7C620 354 640 364 660 369.3C680 374.7 700 375.3 720 373C740 370.7 760 365.3 780 358.3C800 351.3 820 342.7 840 347.5C860 352.3 880 370.7 890 379.8L900 389L900 451L890 451C880 451 860 451 840 451C820 451 800 451 780 451C760 451 740 451 720 451C700 451 680 451 660 451C640 451 620 451 600 451C580 451 560 451 540 451C520 451 500 451 480 451C460 451 440 451 420 451C400 451 380 451 360 451C340 451 320 451 300 451C280 451 260 451 240 451C220 451 200 451 180 451C160 451 140 451 120 451C100 451 80 451 60 451C40 451 20 451 10 451L0 451Z" fill="#a6a6a6"></path><path d="M0 354L10 361.2C20 368.3 40 382.7 60 389C80 395.3 100 393.7 120 391.3C140 389 160 386 180 376C200 366 220 349 240 348C260 347 280 362 300 370C320 378 340 379 360 373C380 367 400 354 420 350C440 346 460 351 480 349.3C500 347.7 520 339.3 540 343C560 346.7 580 362.3 600 367.3C620 372.3 640 366.7 660 369.8C680 373 700 385 720 383.8C740 382.7 760 368.3 780 369.2C800 370 820 386 840 390.7C860 395.3 880 388.7 890 385.3L900 382L900 451L890 451C880 451 860 451 840 451C820 451 800 451 780 451C760 451 740 451 720 451C700 451 680 451 660 451C640 451 620 451 600 451C580 451 560 451 540 451C520 451 500 451 480 451C460 451 440 451 420 451C400 451 380 451 360 451C340 451 320 451 300 451C280 451 260 451 240 451C220 451 200 451 180 451C160 451 140 451 120 451C100 451 80 451 60 451C40 451 20 451 10 451L0 451Z" fill="#b4b4b4"></path><path d="M0 404L10 398C20 392 40 380 60 374.8C80 369.7 100 371.3 120 369.7C140 368 160 363 180 366C200 369 220 380 240 387.7C260 395.3 280 399.7 300 401.3C320 403 340 402 360 401C380 400 400 399 420 400.3C440 401.7 460 405.3 480 397.3C500 389.3 520 369.7 540 363.8C560 358 580 366 600 366.2C620 366.3 640 358.7 660 354.3C680 350 700 349 720 350.3C740 351.7 760 355.3 780 354.7C800 354 820 349 840 351.2C860 353.3 880 362.7 890 367.3L900 372L900 451L890 451C880 451 860 451 840 451C820 451 800 451 780 451C760 451 740 451 720 451C700 451 680 451 660 451C640 451 620 451 600 451C580 451 560 451 540 451C520 451 500 451 480 451C460 451 440 451 420 451C400 451 380 451 360 451C340 451 320 451 300 451C280 451 260 451 240 451C220 451 200 451 180 451C160 451 140 451 120 451C100 451 80 451 60 451C40 451 20 451 10 451L0 451Z" fill="#c3c3c3"></path><path d="M0 377L10 379C20 381 40 385 60 388.7C80 392.3 100 395.7 120 398.5C140 401.3 160 403.7 180 405.7C200 407.7 220 409.3 240 406C260 402.7 280 394.3 300 393.3C320 392.3 340 398.7 360 402.8C380 407 400 409 420 405.3C440 401.7 460 392.3 480 391.5C500 390.7 520 398.3 540 395C560 391.7 580 377.3 600 379.2C620 381 640 399 660 402.2C680 405.3 700 393.7 720 387.7C740 381.7 760 381.3 780 383.5C800 385.7 820 390.3 840 394.5C860 398.7 880 402.3 890 404.2L900 406L900 451L890 451C880 451 860 451 840 451C820 451 800 451 780 451C760 451 740 451 720 451C700 451 680 451 660 451C640 451 620 451 600 451C580 451 560 451 540 451C520 451 500 451 480 451C460 451 440 451 420 451C400 451 380 451 360 451C340 451 320 451 300 451C280 451 260 451 240 451C220 451 200 451 180 451C160 451 140 451 120 451C100 451 80 451 60 451C40 451 20 451 10 451L0 451Z" fill="#d1d1d1"></path><path d="M0 409L10 404.5C20 400 40 391 60 390C80 389 100 396 120 396.8C140 397.7 160 392.3 180 389.2C200 386 220 385 240 390C260 395 280 406 300 407.5C320 409 340 401 360 398.5C380 396 400 399 420 400.5C440 402 460 402 480 403.7C500 405.3 520 408.7 540 409.5C560 410.3 580 408.7 600 407.5C620 406.3 640 405.7 660 406.5C680 407.3 700 409.7 720 406.7C740 403.7 760 395.3 780 397.7C800 400 820 413 840 412.5C860 412 880 398 890 391L900 384L900 451L890 451C880 451 860 451 840 451C820 451 800 451 780 451C760 451 740 451 720 451C700 451 680 451 660 451C640 451 620 451 600 451C580 451 560 451 540 451C520 451 500 451 480 451C460 451 440 451 420 451C400 451 380 451 360 451C340 451 320 451 300 451C280 451 260 451 240 451C220 451 200 451 180 451C160 451 140 451 120 451C100 451 80 451 60 451C40 451 20 451 10 451L0 451Z" fill="#e0e0e0"></path><path d="M0 427L10 427.3C20 427.7 40 428.3 60 425C80 421.7 100 414.3 120 410.8C140 407.3 160 407.7 180 410.3C200 413 220 418 240 419.8C260 421.7 280 420.3 300 420.8C320 421.3 340 423.7 360 424.3C380 425 400 424 420 422.7C440 421.3 460 419.7 480 418.7C500 417.7 520 417.3 540 415.5C560 413.7 580 410.3 600 411.5C620 412.7 640 418.3 660 423C680 427.7 700 431.3 720 428.3C740 425.3 760 415.7 780 410C800 404.3 820 402.7 840 403.3C860 404 880 407 890 408.5L900 410L900 451L890 451C880 451 860 451 840 451C820 451 800 451 780 451C760 451 740 451 720 451C700 451 680 451 660 451C640 451 620 451 600 451C580 451 560 451 540 451C520 451 500 451 480 451C460 451 440 451 420 451C400 451 380 451 360 451C340 451 320 451 300 451C280 451 260 451 240 451C220 451 200 451 180 451C160 451 140 451 120 451C100 451 80 451 60 451C40 451 20 451 10 451L0 451Z" fill="#f0f0f0"></path><path d="M0 428L10 426.5C20 425 40 422 60 420.5C80 419 100 419 120 420.7C140 422.3 160 425.7 180 427.8C200 430 220 431 240 431.3C260 431.7 280 431.3 300 432.2C320 433 340 435 360 434.3C380 433.7 400 430.3 420 429C440 427.7 460 428.3 480 427.2C500 426 520 423 540 421.5C560 420 580 420 600 421.8C620 423.7 640 427.3 660 427.3C680 427.3 700 423.7 720 423C740 422.3 760 424.7 780 426.2C800 427.7 820 428.3 840 427.3C860 426.3 880 423.7 890 422.3L900 421L900 451L890 451C880 451 860 451 840 451C820 451 800 451 780 451C760 451 740 451 720 451C700 451 680 451 660 451C640 451 620 451 600 451C580 451 560 451 540 451C520 451 500 451 480 451C460 451 440 451 420 451C400 451 380 451 360 451C340 451 320 451 300 451C280 451 260 451 240 451C220 451 200 451 180 451C160 451 140 451 120 451C100 451 80 451 60 451C40 451 20 451 10 451L0 451Z" fill="#ffffff"></path></svg>